<svg xmlns="http://www.w3.org/2000/svg" viewBox="0 0 512 512">
  <defs>
    <linearGradient id="a" x1="0%" x2="100%" y1="0%" y2="100%">
      <stop offset="0%" style="stop-color:#10b981"/>
      <stop offset="100%" style="stop-color:#3b82f6"/>
    </linearGradient>
  </defs>
  <rect width="480" height="480" x="16" y="16" fill="url(#a)" rx="96" ry="96"/>
  <rect width="400" height="400" x="56" y="56" fill="#0a0a0a" rx="48" ry="48"/>
  <g fill="#fff">
    <path d="M258.5 122.2c-19.4 20.7-34.1 46.7-42.8 75.8-3.4 11.3-6.7 27.6-6.7 33.2 0 1.9-1.5 4.4-5.1 8.4-13.8 15.3-24.2 36.7-28.4 58.9-2.7 14-2 35.7 1.6 51.8l1.1 4.8 4-6.6c7.7-12.8 22.3-26.2 36.3-33.3 45.4-22.8 100.7-9.2 127.4 31.4l5 7.6 1-3.8c6.1-23.9 3.9-53.5-5.6-76.9-4.2-10.4-11.9-22.7-19.5-31.6-5.4-6.2-6.8-8.5-6.8-11.1 0-6-4-24.7-8.1-37.2-8.5-26.9-22.8-51.4-41-71l-6.4-6.9-6 6.5zm18.1 77.6c6.2 3.2 9.7 6.5 12.9 12.4 3.9 7.2 4.2 17.9.7 24.8-9.7 18.7-33 22.1-46.7 6.8-7-7.8-9-16.5-6-26.5 2.7-9.1 8.8-15.4 18.4-19 5-1.9 15.6-1.1 20.7 1.5z"/>
    <path d="M253 319.9c-11.2 4-16.7 14.5-14.1 26.8.7 3.2 3.7 10.8 6.6 17 5.1 10.8 16.8 30.7 18.6 31.8 1.8 1.2 19.7-29.9 24-41.7 5.7-15.6 1.6-28.3-10.6-33.4-6.3-2.6-17.9-2.8-24.5-.5z"/>
  </g>
</svg>
